<?xml version="1.0" encoding="utf-8"?>
<!-- Generator: Adobe Illustrator 18.1.0, SVG Export Plug-In . SVG Version: 6.00 Build 0)  -->
<!DOCTYPE svg PUBLIC "-//W3C//DTD SVG 1.1//EN" "http://www.w3.org/Graphics/SVG/1.1/DTD/svg11.dtd">
<svg version="1.1" id="Kickstarter_logo" xmlns="http://www.w3.org/2000/svg" xmlns:xlink="http://www.w3.org/1999/xlink" x="0px"
	 y="0px" viewBox="68 65 344 203" enable-background="new 68 65 344 203" xml:space="preserve">
<rect x="19.6" y="55.4" fill="none" width="410.6" height="269.1"/>
<g>
	<g>
		<polygon fill="#FFFFFF" points="112.3,-27.4 480.6,185.2 432.3,274.7 64,62.1 		"/>
	</g>
</g>
<g>
	<path id="Grey_1_" fill="#0F2105" d="M200.9,98.2l7.5-3.6c1.4-0.7,2.7-0.7,4,0.1c1,0.6,1.6,1.4,2,2.5c0.3,1.1,0.2,2.2-0.4,3.2
		c-0.4,0.7-1,1.2-1.7,1.6l-6.8,3.3l1.2,8.3c0.1,0.8-0.1,1.6-0.5,2.4c-0.6,1-1.4,1.7-2.5,2c-1.1,0.3-2.2,0.2-3.2-0.4
		c-1.1-0.7-1.8-1.5-1.9-2.5l-1.6-10.1l-2.2,3.8c-0.7,1.1-1.3,1.8-2,2.2c-1.3,0.7-2.6,0.7-3.9-0.1c-1.2-0.7-1.9-1.6-2.1-2.8
		c-0.2-1.1,0.1-2.3,0.8-3.5l8.2-14.1c0.7-1.2,1.5-2,2.6-2.3c1.1-0.4,2.2-0.3,3.4,0.4c1.1,0.7,1.8,1.6,2,2.8c0.1,0.7,0.1,1.2,0,1.8
		c-0.1,0.3-0.4,0.8-0.8,1.6L200.9,98.2z M223,106.9l-7.8,13.6c-0.7,1.2-1.6,2-2.6,2.4c-1.1,0.5-2.3,0.3-3.5-0.3
		c-1-0.6-1.8-1.5-2-2.7c-0.3-1,0.1-2.2,0.8-3.5l7.9-13.6c0.9-1.5,1.8-2.5,2.8-2.8c1.2-0.4,2.3-0.3,3.4,0.4c1.1,0.7,1.8,1.6,2,2.7
		C224.3,104.1,223.9,105.3,223,106.9z M238.9,109.5c2.7,1.6,4.6,3.8,5.8,7c0.9,2.4,1,4.4,0.1,5.9c-0.7,1.3-1.8,2-3.3,2.1
		c-0.8,0.1-1.6-0.1-2.3-0.5c-0.6-0.3-1-0.8-1.4-1.4c-0.1-0.3-0.4-1.1-0.7-2.6c-0.3-1.4-1.1-2.4-2.3-3.1c-1.2-0.7-2.5-0.8-3.7-0.5
		c-1.3,0.4-2.3,1.2-3,2.3c-0.7,1.2-0.8,2.4-0.5,3.7s1.1,2.3,2.3,3c1,0.6,2.1,0.8,3.3,0.6c0.8-0.2,1.6-0.4,2.4-0.6
		c0.8-0.1,1.7,0,2.5,0.5c1,0.6,1.6,1.4,2,2.5c0.3,1.1,0.2,2.2-0.4,3.1c-0.8,1.4-2.3,2.2-4.7,2.7c-3.3,0.7-6.5,0.1-9.3-1.5
		c-1.8-1-3.3-2.4-4.4-4c-1.4-2.2-2.2-4.5-2.3-7c-0.1-2.5,0.5-5,1.8-7.2c1.9-3.3,4.8-5.5,8.6-6.4
		C232.5,107.2,235.8,107.7,238.9,109.5z M252.9,128.3l7.5-3.6c1.4-0.7,2.7-0.7,4,0.1c1,0.6,1.6,1.4,2,2.5c0.3,1.1,0.2,2.2-0.4,3.2
		c-0.4,0.7-1,1.2-1.7,1.6l-6.8,3.3l1.2,8.3c0.1,0.8-0.1,1.6-0.5,2.4c-0.6,1-1.4,1.7-2.5,2c-1.1,0.3-2.2,0.2-3.2-0.4
		c-1.1-0.7-1.8-1.5-1.9-2.5L249,135l-2.2,3.8c-0.7,1.1-1.3,1.8-2,2.2c-1.3,0.7-2.6,0.7-3.9-0.1c-1.2-0.7-1.9-1.6-2.1-2.8
		c-0.2-1.1,0.1-2.3,0.8-3.5l8.2-14.1c0.7-1.2,1.5-2,2.6-2.3c1.1-0.4,2.2-0.3,3.4,0.4c1.1,0.7,1.8,1.6,2,2.8c0.1,0.7,0.1,1.2,0,1.8
		c-0.1,0.3-0.4,0.8-0.8,1.6L252.9,128.3z"/>
	<path id="Green_1_" fill="#2BDE73" d="M265.5,143.9c0.8,0.5,1.4,1.3,2,2.5c0.7,1.6,1.2,2.4,1.6,2.7c0.7,0.4,1.1,0.2,1.5-0.5
		c0.2-0.3,0.2-0.8,0-1.2c-0.1-0.3-1-1.3-2.5-3.1c-2.5-3-3-6.1-1.2-9.1c1.4-2.3,3.3-3.7,5.7-4c2.2-0.3,4.4,0.2,6.6,1.4
		c1.9,1.1,3.3,2.5,4.2,4.2c0.9,1.7,0.9,3.3,0.1,4.7c-0.5,0.8-1.2,1.4-2,1.7c-0.8,0.3-1.7,0.1-2.5-0.3c-0.9-0.5-1.6-1.5-2.2-3
		c-0.4-0.9-0.7-1.5-1-1.7c-0.6-0.3-1-0.2-1.4,0.3c-0.3,0.5,0.1,1.5,1.3,2.7c1.6,1.8,2.7,3.5,3.3,5c0.8,2.1,0.5,4.2-0.8,6.5
		c-1.4,2.4-3.3,3.8-5.7,4.2c-2.3,0.4-4.6-0.1-7.1-1.6c-2.5-1.4-4.1-3.3-5-5.5c-0.7-1.8-0.7-3.4,0.2-4.8c0.5-0.9,1.3-1.5,2.3-1.8
		C263.6,143.2,264.6,143.3,265.5,143.9z M288.9,148.1l-1.9-1.1c-1-0.6-1.8-1.4-2.2-2.4c-0.4-1-0.3-2.1,0.3-3.1
		c0.4-0.7,0.8-1.1,1.6-1.5c0.7-0.4,1.4-0.5,2.1-0.5c0.7,0.1,2.1,0.7,4.2,1.9l7.3,4.2c1.8,1,2.9,1.8,3.3,2.3c0.5,0.6,0.7,1.2,0.7,2
		c0,0.8-0.1,1.5-0.5,2.2c-0.6,1-1.5,1.6-2.7,1.9c-0.8,0.2-2-0.1-3.3-0.8l-1.6-1l-6.3,11c-0.7,1.2-1.4,2-2.2,2.4
		c-1.3,0.7-2.6,0.7-3.9-0.1c-1.3-0.8-2-1.8-2.2-3.3c-0.1-0.8,0.3-2,1-3.2L288.9,148.1z M299.4,170.7c-0.8,0.6-1.5,1-2.1,1.2
		c-1.2,0.4-2.3,0.3-3.3-0.3c-1.3-0.7-2-1.8-2.1-3.3c-0.1-0.8,0.1-1.6,0.6-2.4c0.4-0.7,0.9-1.2,1.6-1.6l15.3-10.7
		c1.5-1,3-1.1,4.6-0.2c1.6,0.9,2.3,2.3,2.2,4.2l-1.6,18.8c-0.1,0.8-0.3,1.4-0.6,2c-0.5,0.8-1.2,1.4-2.2,1.8
		c-1.2,0.5-2.4,0.3-3.6-0.3c-0.9-0.5-1.6-1.3-1.8-2.2c-0.2-0.7-0.3-1.7-0.1-2.9L299.4,170.7z M332.8,182.5l0.1,3.7
		c0,1-0.2,2-0.7,2.7c-0.6,1-1.4,1.6-2.5,2c-1.1,0.3-2.2,0.1-3.2-0.5c-1.3-0.8-2-1.9-2-3.4l-0.2-6.7l-1.7,3c-0.6,1-1.4,1.7-2.5,2
		c-1.1,0.3-2.2,0.2-3.1-0.4c-1.2-0.7-2-1.7-2.1-3c-0.1-1.1,0.2-2.3,0.9-3.6l7.8-13.6c1.6-2.8,3.9-3.3,6.9-1.6l4.6,2.7
		c1.5,0.8,2.7,2.2,3.5,3.7c0.8,1.6,1.1,3.3,0.9,5c-0.1,1.3-0.5,2.5-1.2,3.6C337.2,180.2,335.4,181.6,332.8,182.5z M345.3,180.6
		l-1.9-1.1c-1-0.6-1.8-1.4-2.2-2.4c-0.4-1-0.3-2.1,0.3-3.1c0.4-0.7,0.8-1.1,1.6-1.5c0.7-0.4,1.4-0.5,2.1-0.5
		c0.7,0.1,2.1,0.7,4.2,1.9l7.3,4.2c1.8,1,2.9,1.8,3.3,2.3c0.5,0.6,0.7,1.2,0.7,2c0,0.8-0.1,1.5-0.5,2.2c-0.6,1-1.5,1.6-2.7,1.9
		c-0.8,0.2-2-0.1-3.3-0.8l-1.6-1l-6.3,11c-0.7,1.2-1.4,2-2.2,2.4c-1.3,0.7-2.6,0.7-3.9-0.1c-1.3-0.8-2-1.8-2.2-3.3
		c-0.1-0.8,0.3-2,1-3.2L345.3,180.6z M361.9,201.5l3.3,1.9c1.4,0.8,2.2,1.6,2.5,2.6c0.4,1.1,0.3,2.2-0.3,3.3s-1.5,1.7-2.7,2
		c-0.9,0.1-2.1-0.1-3.5-1l-5.7-3.3c-1.3-0.8-2.2-1.4-2.5-1.9c-0.7-1-1-2-0.8-3.1c0.1-0.7,0.6-1.7,1.4-3l6.9-11.9c0.6-1,1-1.6,1.2-2
		c0.5-0.7,1.2-1,1.9-1.3c0.8-0.3,1.7-0.2,2.5,0.1c0.4,0.1,1.2,0.6,2.3,1.2l4.3,2.5c1.2,0.7,1.9,1.1,2,1.2c0.7,0.5,1.2,1.1,1.5,1.8
		c0.5,1.2,0.5,2.3-0.2,3.4c-0.7,1.2-1.6,1.8-2.7,2c-1,0.1-2.1-0.1-3.3-0.8l-3.6-2.1l-0.8,1.5l2.9,1.6c0.8,0.5,1.4,1.1,1.7,1.8
		c0.3,0.8,0.2,1.6-0.3,2.5c-1,1.8-2.6,2-4.7,0.8l-2.6-1.5L361.9,201.5z M386.2,213.3l0.1,3.7c0,1-0.2,2-0.7,2.7
		c-0.6,1-1.4,1.6-2.5,2c-1.1,0.3-2.2,0.1-3.2-0.5c-1.3-0.8-2-1.9-2-3.4l-0.2-6.7l-1.7,3c-0.6,1-1.4,1.7-2.5,2
		c-1.1,0.3-2.2,0.2-3.1-0.4c-1.2-0.7-2-1.7-2.1-3c-0.1-1.1,0.2-2.3,0.9-3.6l7.8-13.6c1.6-2.8,3.9-3.3,6.9-1.6l4.6,2.7
		c1.5,0.8,2.7,2.2,3.5,3.7c0.8,1.6,1.1,3.3,0.9,5c-0.1,1.3-0.5,2.5-1.2,3.6C390.6,211,388.8,212.5,386.2,213.3z"/>
</g>
<path fill="#F69320" stroke="#F69320" stroke-miterlimit="10" d="M246,85.5c-0.4,0.7-0.9,1.2-1.6,1.6c-0.7,0.4-1.4,0.5-2.3,0.4
	c-0.8-0.1-1.8-0.4-2.7-0.9c-1.1-0.7-1.9-1.4-2.4-2.2c-0.3-0.6-0.5-1.2-0.5-2c0-0.7,0.1-1.3,0.4-1.8c0.1-0.3,0.4-0.5,0.7-0.5
	s0.6-0.1,0.9,0.1c0.3,0.1,0.4,0.3,0.5,0.6c0.1,0.3,0.1,0.6,0,0.9c-0.1,0.5-0.1,0.8-0.1,1.2c0,0.3,0.1,0.7,0.4,1
	c0.2,0.3,0.6,0.7,1,0.9c0.7,0.4,1.3,0.5,2,0.5c0.7-0.1,1-0.3,1.3-0.8c0.2-0.4,0.3-0.7,0.2-1.1c-0.1-0.4-0.3-0.7-0.6-1
	c-0.3-0.3-0.7-0.7-1.2-1.2c-0.7-0.7-1.2-1.3-1.6-1.8c-0.4-0.6-0.7-1.2-0.7-1.8s0.1-1.2,0.5-1.9s0.8-1.1,1.5-1.4
	c0.7-0.3,1.3-0.4,2.1-0.3c0.8,0.1,1.6,0.4,2.5,0.9c0.7,0.4,1.2,0.8,1.6,1.3c0.4,0.5,0.7,0.9,0.8,1.4c0.1,0.5,0.3,0.9,0.2,1.3
	c0,0.4-0.1,0.8-0.3,1c-0.1,0.3-0.4,0.5-0.7,0.6c-0.3,0.1-0.7,0.1-0.9-0.1c-0.3-0.1-0.5-0.3-0.5-0.5c-0.1-0.2-0.1-0.5-0.1-0.9
	c0.1-0.5,0-1-0.2-1.4c-0.2-0.4-0.5-0.8-1.2-1.2c-0.6-0.3-1.2-0.5-1.6-0.5c-0.5,0.1-0.8,0.3-1.1,0.7c-0.1,0.2-0.2,0.5-0.1,0.7
	c0.1,0.3,0.1,0.5,0.3,0.7c0.1,0.3,0.3,0.5,0.5,0.7c0.2,0.2,0.5,0.5,0.9,0.9c0.5,0.5,1,1,1.4,1.5s0.7,1,0.9,1.4
	c0.2,0.5,0.3,1,0.3,1.4C246.5,84.4,246.3,84.9,246,85.5z"/>
<path fill="#F69320" stroke="#F69320" stroke-miterlimit="10" d="M249.4,85.7l3.1-5.4c0.3-0.5,0.6-0.8,0.9-0.8
	c0.3-0.1,0.7-0.1,1,0.1c0.3,0.2,0.6,0.5,0.7,0.8c0.1,0.3,0,0.8-0.3,1.2l-3.2,5.5c-0.4,0.7-0.6,1.2-0.7,1.7c-0.1,0.5-0.1,1,0.2,1.4
	c0.2,0.5,0.7,0.8,1.3,1.2c0.9,0.5,1.7,0.7,2.3,0.4s1.2-0.8,1.8-1.8l3.3-5.6c0.3-0.5,0.6-0.8,0.9-0.8c0.3-0.1,0.7-0.1,1,0.1
	c0.3,0.2,0.6,0.5,0.7,0.8c0.1,0.3,0,0.8-0.3,1.2l-3.1,5.4c-0.5,0.9-1,1.6-1.6,2.1s-1.1,0.8-1.9,1c-0.7,0.1-1.2,0.1-1.9,0
	s-1.3-0.4-2.1-0.8c-0.8-0.5-1.6-1-2.1-1.6c-0.5-0.5-0.8-1.1-1-1.8c-0.2-0.7-0.2-1.3,0-2C248.7,87.5,248.9,86.6,249.4,85.7z"/>
<path fill="#F69320" stroke="#F69320" stroke-miterlimit="10" d="M266.2,95.8l-2.1-1.2l-1.8,3.2c-0.3,0.5-0.6,0.7-0.9,0.8
	c-0.3,0.1-0.7,0.1-1-0.1s-0.6-0.5-0.7-0.8c-0.1-0.3,0-0.8,0.3-1.2l5-8.7c0.3-0.5,0.6-0.8,1-0.9c0.3-0.1,0.8,0,1.3,0.3l2.9,1.7
	c0.8,0.5,1.5,1,1.9,1.4c0.4,0.4,0.7,0.8,0.8,1.3c0.2,0.5,0.2,1,0.1,1.6c-0.1,0.5-0.3,1-0.6,1.6c-0.7,1.2-1.5,1.8-2.6,2
	S267.6,96.6,266.2,95.8z M268.7,90.3l-1.6-0.9l-2,3.5l1.6,0.9c0.5,0.3,1,0.5,1.4,0.6c0.4,0.1,0.8,0.1,1.2-0.1
	c0.3-0.1,0.7-0.5,0.8-0.8c0.3-0.5,0.4-1,0.3-1.5C270.2,91.4,269.7,90.9,268.7,90.3z"/>
<path fill="#F69320" stroke="#F69320" stroke-miterlimit="10" d="M277.4,102.3l-2.1-1.2l-1.8,3.2c-0.3,0.5-0.6,0.7-0.9,0.8
	c-0.3,0.1-0.7,0.1-1-0.1c-0.3-0.2-0.6-0.5-0.7-0.8c-0.1-0.3,0-0.8,0.3-1.2l5-8.7c0.3-0.5,0.6-0.8,1-0.9c0.3-0.1,0.8,0,1.3,0.3
	l2.9,1.7c0.8,0.5,1.5,1,1.9,1.4c0.4,0.4,0.7,0.8,0.8,1.3c0.2,0.5,0.2,1,0.1,1.6c-0.1,0.5-0.3,1-0.6,1.6c-0.7,1.2-1.5,1.8-2.6,2
	C280,103.4,278.8,103.1,277.4,102.3z M279.8,96.7l-1.6-0.9l-2,3.5l1.6,0.9c0.5,0.3,1,0.5,1.4,0.6c0.5,0.1,0.8,0.1,1.2-0.1
	c0.3-0.1,0.7-0.5,0.8-0.8c0.3-0.5,0.4-1,0.3-1.5C281.5,97.9,280.9,97.3,279.8,96.7z"/>
<path fill="#F69320" stroke="#F69320" stroke-miterlimit="10" d="M293.3,101.9c1.2,0.7,2,1.5,2.6,2.5c0.6,1,0.8,2,0.7,3.1
	c-0.1,1.1-0.5,2.3-1.1,3.5c-0.5,0.8-1.1,1.6-1.8,2.2s-1.4,1-2.2,1.2c-0.8,0.3-1.6,0.3-2.4,0.2c-0.8-0.1-1.7-0.5-2.6-1
	s-1.6-1.1-2.2-1.8c-0.6-0.7-0.9-1.4-1-2.2c-0.1-0.8-0.1-1.6,0-2.5c0.2-0.8,0.5-1.8,1-2.6c0.5-0.8,1.1-1.6,1.8-2.2
	c0.7-0.6,1.4-1,2.2-1.2s1.6-0.3,2.4-0.2C291.5,101,292.4,101.4,293.3,101.9z M293.1,109.6c0.5-0.8,0.8-1.6,0.8-2.4s-0.1-1.4-0.3-2
	c-0.3-0.6-0.8-1.1-1.4-1.4c-0.5-0.3-0.9-0.4-1.4-0.5c-0.5-0.1-1,0-1.4,0.2s-0.9,0.5-1.4,0.8c-0.5,0.4-0.8,1-1.2,1.6
	c-0.4,0.7-0.7,1.3-0.8,1.9c-0.1,0.6-0.1,1.2-0.1,1.7c0.1,0.5,0.3,1,0.6,1.4c0.3,0.4,0.7,0.7,1.1,1c0.6,0.3,1.2,0.5,1.9,0.5
	s1.3-0.3,2-0.7C292.1,111.2,292.6,110.6,293.1,109.6z"/>
<path fill="#F69320" stroke="#F69320" stroke-miterlimit="10" d="M300.7,115.1l-0.8-0.5l-2.1,3.7c-0.3,0.5-0.6,0.8-0.9,0.8
	c-0.3,0.1-0.7,0.1-1-0.1c-0.4-0.2-0.6-0.5-0.7-0.8c-0.1-0.3,0.1-0.8,0.3-1.2l5-8.7c0.3-0.5,0.6-0.8,1-0.9c0.3-0.1,0.8,0,1.2,0.3
	l3.7,2.2c0.5,0.3,0.9,0.6,1.3,0.8c0.3,0.3,0.6,0.5,0.8,0.8c0.3,0.3,0.5,0.7,0.6,1.2c0.1,0.5,0.1,0.8,0.1,1.3
	c-0.1,0.5-0.2,0.8-0.5,1.3c-0.5,0.8-1.1,1.4-1.9,1.6s-1.7,0.2-2.8-0.2c0.3,0.5,0.5,1,0.6,1.6s0.2,1.3,0.2,1.9c0,0.7,0,1.2-0.1,1.7
	c-0.1,0.5-0.1,0.8-0.2,0.9c-0.1,0.1-0.2,0.3-0.4,0.4c-0.2,0.1-0.4,0.1-0.6,0.1s-0.5-0.1-0.7-0.2c-0.3-0.1-0.5-0.3-0.5-0.6
	c-0.1-0.2-0.2-0.5-0.2-0.7s0-0.7-0.1-1.1l-0.1-2.1c0-0.8-0.1-1.4-0.1-1.8c-0.1-0.5-0.3-0.8-0.5-1
	C301.4,115.5,301.1,115.4,300.7,115.1z M304.7,111.1l-2.1-1.2l-1.8,3.1l2,1.2c0.5,0.3,1,0.5,1.5,0.7s0.8,0.1,1.2,0
	c0.3-0.1,0.6-0.4,0.8-0.8c0.2-0.3,0.3-0.7,0.3-1c0-0.3-0.1-0.7-0.3-0.9C306,111.9,305.5,111.6,304.7,111.1z"/>
<path fill="#F69320" stroke="#F69320" stroke-miterlimit="10" d="M318.8,119.5l-2.5-1.4l-4.8,8.2c-0.3,0.5-0.6,0.8-0.9,0.8
	c-0.3,0.1-0.7,0.1-1-0.1c-0.3-0.2-0.5-0.5-0.7-0.8c-0.1-0.3,0-0.8,0.3-1.2l4.8-8.2l-2.5-1.4c-0.4-0.2-0.7-0.5-0.7-0.8
	c-0.1-0.3-0.1-0.6,0.1-0.8c0.2-0.3,0.4-0.5,0.7-0.5c0.3-0.1,0.7,0,1,0.3l7.3,4.2c0.4,0.3,0.7,0.5,0.7,0.8c0.1,0.3,0.1,0.6-0.1,0.8
	s-0.4,0.5-0.7,0.5S319.2,119.7,318.8,119.5z"/>
<path fill="#F69320" stroke="#F69320" stroke-miterlimit="10" d="M324.3,130l3.1-5.4c0.3-0.5,0.6-0.8,0.9-0.8c0.3-0.1,0.7-0.1,1,0.1
	c0.3,0.2,0.6,0.5,0.7,0.8s0,0.8-0.3,1.2l-3.2,5.5c-0.4,0.7-0.6,1.2-0.7,1.7c-0.1,0.5-0.1,1,0.2,1.4c0.2,0.5,0.7,0.8,1.3,1.2
	c0.9,0.5,1.7,0.7,2.3,0.4c0.7-0.3,1.2-0.8,1.8-1.8l3.3-5.6c0.3-0.5,0.6-0.8,0.9-0.8c0.3-0.1,0.7-0.1,1,0.1c0.3,0.2,0.6,0.5,0.7,0.8
	c0.1,0.3,0,0.8-0.3,1.2l-3.1,5.4c-0.5,0.9-1,1.6-1.6,2.1c-0.5,0.5-1.1,0.8-1.9,1c-0.7,0.1-1.3,0.1-1.9,0c-0.6-0.1-1.3-0.4-2.1-0.8
	c-0.8-0.5-1.6-1-2.1-1.6c-0.5-0.5-0.8-1.1-1-1.8c-0.2-0.7-0.2-1.3,0-2C323.5,131.7,323.8,130.9,324.3,130z"/>
<path fill="#F69320" stroke="#F69320" stroke-miterlimit="10" d="M344.8,143.5c-0.4,0.7-0.9,1.2-1.6,1.6c-0.7,0.4-1.4,0.5-2.3,0.4
	c-0.8-0.1-1.8-0.4-2.7-0.9c-1.1-0.7-1.9-1.4-2.4-2.2c-0.3-0.6-0.5-1.2-0.5-2c0-0.7,0.1-1.3,0.4-1.8c0.1-0.3,0.4-0.5,0.7-0.5
	s0.6-0.1,0.9,0.1c0.3,0.1,0.4,0.3,0.5,0.6c0.1,0.3,0.1,0.6,0,0.9c-0.1,0.5-0.1,0.8-0.1,1.2s0.1,0.7,0.4,1c0.2,0.3,0.6,0.7,1,0.9
	c0.7,0.4,1.3,0.5,2,0.5c0.6-0.1,1-0.3,1.3-0.8c0.2-0.4,0.3-0.7,0.2-1.1c-0.1-0.4-0.3-0.7-0.6-1c-0.3-0.3-0.7-0.7-1.2-1.2
	c-0.7-0.7-1.2-1.3-1.6-1.8s-0.7-1.2-0.7-1.8c-0.1-0.7,0.1-1.2,0.5-1.9c0.4-0.7,0.8-1.1,1.5-1.4c0.6-0.3,1.3-0.4,2.1-0.3
	s1.6,0.4,2.5,0.9c0.7,0.4,1.2,0.8,1.6,1.3s0.7,0.9,0.8,1.4c0.2,0.5,0.3,0.9,0.2,1.3s-0.1,0.8-0.3,1c-0.1,0.3-0.4,0.5-0.7,0.6
	c-0.3,0.1-0.7,0.1-0.9-0.1c-0.3-0.1-0.5-0.3-0.5-0.5c-0.1-0.2-0.1-0.5-0.1-0.9c0.1-0.5,0-1-0.2-1.4c-0.1-0.4-0.5-0.8-1.2-1.2
	c-0.6-0.3-1.2-0.5-1.6-0.5c-0.5,0.1-0.8,0.3-1.1,0.7c-0.1,0.2-0.2,0.5-0.1,0.7c0,0.3,0.1,0.5,0.3,0.7c0.1,0.3,0.3,0.5,0.5,0.7
	s0.5,0.5,0.9,0.9c0.5,0.5,1,1,1.4,1.5s0.7,1,0.9,1.4s0.3,1,0.3,1.4C345.3,142.4,345.1,143,344.8,143.5z"/>
<path fill="#F69320" stroke="#F69320" stroke-miterlimit="10" d="M361.6,142.4c1.2,0.7,2,1.5,2.6,2.5s0.8,2,0.7,3.1
	c-0.1,1.1-0.5,2.3-1.1,3.5c-0.5,0.8-1.1,1.6-1.8,2.2c-0.7,0.6-1.4,1-2.2,1.2c-0.8,0.3-1.6,0.3-2.4,0.2c-0.8-0.1-1.7-0.5-2.6-1
	c-0.9-0.5-1.6-1.1-2.2-1.8c-0.5-0.7-0.9-1.4-1-2.2c-0.2-0.8-0.1-1.6,0-2.5c0.2-0.8,0.5-1.8,1-2.6c0.5-0.8,1.1-1.6,1.8-2.2
	s1.4-1,2.2-1.2c0.8-0.3,1.6-0.3,2.4-0.2C359.9,141.6,360.8,142,361.6,142.4z M361.6,150.2c0.5-0.8,0.8-1.6,0.8-2.4
	c0.1-0.8-0.1-1.4-0.3-2c-0.3-0.6-0.8-1.1-1.4-1.4c-0.5-0.3-0.9-0.4-1.4-0.5c-0.5-0.1-1,0-1.4,0.2s-0.9,0.5-1.4,0.8
	c-0.5,0.4-0.8,1-1.2,1.6c-0.4,0.7-0.7,1.3-0.8,1.9c-0.1,0.6-0.1,1.2-0.1,1.7c0.1,0.5,0.3,1,0.6,1.4c0.3,0.4,0.7,0.7,1.1,1
	c0.6,0.3,1.2,0.5,1.9,0.5c0.7,0,1.3-0.3,2-0.7C360.5,151.8,361.1,151,361.6,150.2z"/>
<path fill="#F69320" stroke="#F69320" stroke-miterlimit="10" d="M372,150.3l0.6,9.2l3.9-6.7c0.3-0.5,0.5-0.7,0.8-0.8
	c0.3-0.1,0.7-0.1,1,0.1s0.5,0.5,0.6,0.8c0.1,0.3,0,0.7-0.3,1.2l-5.2,8.9c-0.6,1-1.3,1.2-2.1,0.8c-0.2-0.1-0.4-0.3-0.5-0.4
	s-0.3-0.3-0.3-0.5c-0.1-0.2-0.1-0.5-0.1-0.7s-0.1-0.5-0.1-0.7l-0.5-9.1L366,159c-0.3,0.5-0.5,0.7-0.8,0.8c-0.3,0.1-0.7,0.1-1-0.1
	c-0.3-0.2-0.5-0.5-0.6-0.8s0-0.7,0.3-1.2l5-8.7c0.2-0.4,0.4-0.7,0.7-0.8c0.3-0.2,0.5-0.3,0.8-0.3c0.3,0,0.6,0.1,0.8,0.2
	c0.2,0.1,0.4,0.3,0.5,0.4c0.1,0.1,0.2,0.3,0.3,0.5c0.1,0.2,0.1,0.4,0.1,0.7C372,149.7,372,150,372,150.3z"/>
<line fill="none" stroke="#F15B29" stroke-miterlimit="10" x1="396.2" y1="190.1" x2="202.9" y2="78.5"/>
</svg>
