<?xml version="1.0" encoding="utf-8"?>
<!-- Generator: Adobe Illustrator 18.1.0, SVG Export Plug-In . SVG Version: 6.00 Build 0)  -->
<!DOCTYPE svg PUBLIC "-//W3C//DTD SVG 1.1//EN" "http://www.w3.org/Graphics/SVG/1.1/DTD/svg11.dtd">
<svg version="1.1" id="Layer_1" xmlns="http://www.w3.org/2000/svg" xmlns:xlink="http://www.w3.org/1999/xlink" x="0px" y="0px"
	 viewBox="0 0 418 72" enable-background="new 0 0 418.3 72.9" xml:space="preserve">
<g>
	<g>
		<path fill="#E2E2E2" d="M152.7,15.3c-1.4-2-3.3-3.5-5.5-4.7c-2.2-1.2-4.9-1.8-8.1-1.8c-1.6,0-3.3,0.2-4.9,0.7
			c-1.7,0.5-3.2,1.2-4.6,2.3c-1.4,1-2.5,2.3-3.3,3.8c-0.8,1.5-1.3,3.3-1.3,5.4c0,2.1,0.4,3.8,1.2,5.1c0.8,1.3,1.9,2.5,3.2,3.4
			c1.3,1,2.8,1.7,4.5,2.3c1.7,0.6,3.5,1.2,5.3,1.8c2.3,0.7,4.6,1.5,6.9,2.4c2.3,0.9,4.4,2,6.3,3.4c1.9,1.4,3.4,3.1,4.5,5.2
			c1.2,2.1,1.8,4.8,1.8,8c0,3.2-0.6,6-1.9,8.4c-1.3,2.4-2.9,4.3-4.9,5.8c-2,1.5-4.3,2.7-6.9,3.4c-2.6,0.7-5.2,1.1-7.8,1.1
			c-2,0-4-0.2-5.9-0.6c-2-0.4-3.9-1-5.7-1.8c-1.8-0.8-3.5-1.8-5-3c-1.5-1.2-2.9-2.6-4.1-4.2l5.8-4.2c1.4,2.3,3.4,4.3,6,5.8
			c2.6,1.6,5.6,2.3,9.1,2.3c1.7,0,3.4-0.3,5.1-0.8c1.7-0.5,3.3-1.3,4.7-2.4c1.4-1.1,2.5-2.4,3.4-4c0.9-1.6,1.3-3.4,1.3-5.5
			c0-2.3-0.4-4.1-1.3-5.7c-0.9-1.5-2.1-2.8-3.6-3.8c-1.5-1-3.2-1.9-5.1-2.5c-1.9-0.7-3.9-1.3-6-2c-2.2-0.7-4.3-1.4-6.4-2.3
			c-2.1-0.9-4-2-5.7-3.4s-3-3.1-4-5.1c-1-2-1.5-4.5-1.5-7.4c0-3.1,0.6-5.8,1.9-8.1c1.3-2.3,2.9-4.1,5-5.6c2-1.5,4.3-2.5,6.8-3.2
			c2.5-0.7,4.9-1,7.3-1c4.5,0,8.3,0.8,11.4,2.3c3.2,1.6,5.5,3.4,7.2,5.6L152.7,15.3z"/>
		<path fill="#E2E2E2" d="M189.2,32.1h-12.3v25.1c0,1.6,0.2,2.9,0.5,4c0.3,1,0.8,1.9,1.3,2.4c0.6,0.6,1.3,1,2.1,1.2
			c0.8,0.2,1.7,0.3,2.6,0.3c0.9,0,1.8-0.1,2.7-0.4c1-0.2,1.9-0.6,2.7-1l0.3,5.4c-1.1,0.4-2.3,0.7-3.5,1c-1.2,0.2-2.5,0.3-4,0.3
			c-1.2,0-2.4-0.2-3.7-0.5c-1.3-0.3-2.5-0.9-3.6-1.7c-1.1-0.9-2-2-2.7-3.5c-0.7-1.5-1.1-3.4-1.1-5.8V32.1h-9v-5.2h9V14.8h6.3v12.1
			h12.3V32.1z"/>
		<path fill="#E2E2E2" d="M236,47.1c0,0.4,0,0.9,0,1.4c0,0.5,0,1-0.1,1.6h-36.1c0.1,2.1,0.5,4.2,1.3,6.1c0.8,1.9,1.9,3.6,3.3,5
			c1.4,1.4,3.1,2.5,5,3.4c1.9,0.8,4,1.2,6.2,1.2c3.3,0,6.1-0.7,8.5-2.3c2.4-1.5,4.2-3.2,5.4-5.2l4.7,3.7c-2.6,3.2-5.5,5.6-8.6,7
			c-3.1,1.4-6.5,2.1-10.1,2.1c-3.2,0-6.2-0.6-9-1.7c-2.8-1.1-5.1-2.7-7.1-4.7c-2-2-3.5-4.4-4.7-7.2c-1.1-2.8-1.7-5.8-1.7-9
			c0-3.2,0.6-6.2,1.7-9c1.1-2.8,2.7-5.1,4.6-7.2c2-2,4.3-3.6,7-4.7c2.7-1.1,5.5-1.7,8.6-1.7c3.4,0,6.4,0.6,9,1.7
			c2.6,1.1,4.8,2.7,6.5,4.6c1.7,1.9,3.1,4.2,4,6.8C235.6,41.4,236,44.2,236,47.1z M229.6,45.1c-0.2-4-1.5-7.4-4-10.1
			c-2.4-2.7-5.9-4-10.5-4c-2.1,0-4.1,0.4-5.9,1.1c-1.8,0.8-3.4,1.8-4.7,3.1c-1.4,1.3-2.4,2.8-3.3,4.5c-0.8,1.7-1.3,3.4-1.4,5.3
			H229.6z"/>
		<path fill="#E2E2E2" d="M267.5,32.1h-12.3v25.1c0,1.6,0.2,2.9,0.5,4c0.3,1,0.8,1.9,1.3,2.4c0.6,0.6,1.3,1,2.1,1.2
			c0.8,0.2,1.7,0.3,2.6,0.3c0.9,0,1.8-0.1,2.7-0.4c1-0.2,1.9-0.6,2.7-1l0.3,5.4c-1.1,0.4-2.3,0.7-3.5,1c-1.2,0.2-2.5,0.3-4,0.3
			c-1.2,0-2.4-0.2-3.7-0.5c-1.3-0.3-2.5-0.9-3.6-1.7c-1.1-0.9-2-2-2.7-3.5c-0.7-1.5-1.1-3.4-1.1-5.8V32.1h-9v-5.2h9V14.8h6.3v12.1
			h12.3V32.1z"/>
		<path fill="#E2E2E2" d="M282.3,34c1.2-2.5,3.1-4.5,5.9-6c2.7-1.5,5.6-2.2,8.7-2.2c5.5,0,9.6,1.6,12.4,4.9
			c2.8,3.2,4.1,7.5,4.1,12.9v26.4h-6.3V46.1c0-2.3-0.2-4.3-0.6-6.2c-0.4-1.8-1-3.4-1.9-4.7c-0.9-1.3-2.1-2.3-3.6-3.1
			c-1.5-0.7-3.4-1.1-5.7-1.1c-1.7,0-3.3,0.3-4.9,1c-1.6,0.7-3,1.7-4.2,3.1c-1.2,1.4-2.2,3.1-3,5.2c-0.7,2.1-1.1,4.6-1.1,7.5v22h-6.3
			V0.4h6.3V34H282.3z"/>
		<path fill="#E2E2E2" d="M366.9,47.1c0,0.4,0,0.9,0,1.4c0,0.5,0,1-0.1,1.6h-36.1c0.1,2.1,0.5,4.2,1.3,6.1c0.8,1.9,1.9,3.6,3.3,5
			c1.4,1.4,3.1,2.5,5,3.4c1.9,0.8,4,1.2,6.2,1.2c3.3,0,6.1-0.7,8.5-2.3c2.4-1.5,4.2-3.2,5.4-5.2l4.7,3.7c-2.6,3.2-5.5,5.6-8.6,7
			c-3.1,1.4-6.5,2.1-10.1,2.1c-3.2,0-6.2-0.6-9-1.7c-2.8-1.1-5.1-2.7-7.1-4.7c-2-2-3.5-4.4-4.7-7.2c-1.1-2.8-1.7-5.8-1.7-9
			c0-3.2,0.6-6.2,1.7-9s2.7-5.1,4.6-7.2c2-2,4.3-3.6,7-4.7c2.7-1.1,5.5-1.7,8.6-1.7c3.4,0,6.4,0.6,9,1.7c2.6,1.1,4.8,2.7,6.5,4.6
			c1.7,1.9,3.1,4.2,4,6.8C366.5,41.4,366.9,44.2,366.9,47.1z M360.5,45.1c-0.2-4-1.5-7.4-4-10.1c-2.4-2.7-5.9-4-10.5-4
			c-2.1,0-4.1,0.4-5.9,1.1c-1.8,0.8-3.4,1.8-4.7,3.1c-1.4,1.3-2.4,2.8-3.3,4.5c-0.8,1.7-1.3,3.4-1.4,5.3H360.5z"/>
		<path fill="#E2E2E2" d="M418.1,47.1c0,0.4,0,0.9,0,1.4c0,0.5,0,1-0.1,1.6H382c0.1,2.1,0.5,4.2,1.3,6.1c0.8,1.9,1.9,3.6,3.3,5
			c1.4,1.4,3.1,2.5,5,3.4c1.9,0.8,4,1.2,6.2,1.2c3.3,0,6.1-0.7,8.5-2.3c2.4-1.5,4.2-3.2,5.4-5.2l4.7,3.7c-2.6,3.2-5.5,5.6-8.6,7
			c-3.1,1.4-6.5,2.1-10.1,2.1c-3.2,0-6.2-0.6-9-1.7c-2.8-1.1-5.1-2.7-7.1-4.7c-2-2-3.5-4.4-4.7-7.2c-1.1-2.8-1.7-5.8-1.7-9
			c0-3.2,0.6-6.2,1.7-9c1.1-2.8,2.7-5.1,4.6-7.2c2-2,4.3-3.6,7-4.7c2.7-1.1,5.5-1.7,8.6-1.7c3.4,0,6.4,0.6,9,1.7
			c2.6,1.1,4.8,2.7,6.5,4.6c1.7,1.9,3.1,4.2,4,6.8C417.7,41.4,418.1,44.2,418.1,47.1z M411.7,45.1c-0.2-4-1.5-7.4-4-10.1
			c-2.4-2.7-5.9-4-10.5-4c-2.1,0-4.1,0.4-5.9,1.1c-1.8,0.8-3.4,1.8-4.7,3.1c-1.4,1.3-2.4,2.8-3.3,4.5c-0.8,1.7-1.3,3.4-1.4,5.3
			H411.7z"/>
	</g>
	<g>
		<path fill="#E2E2E2" d="M86.1,72.4h-68c-9.9,0-18-8-18-17.8v-4c0-9.8,8.1-17.8,18-17.8h68c9.9,0,18,8,18,17.8v4
			C104.1,64.5,96,72.4,86.1,72.4z M18.1,36.9c-7.7,0-14,6.2-14,13.8v4c0,7.6,6.3,13.8,14,13.8h68c7.7,0,14-6.2,14-13.8v-4
			c0-7.6-6.3-13.8-14-13.8H18.1z"/>
	</g>
	<g>
		<path fill="#E2E2E2" d="M80.1,25h-56c-5.5,0-10-4.4-10-9.9v-2c0-5.4,4.5-9.9,10-9.9h56c5.5,0,10,4.4,10,9.9v2
			C90.1,20.6,85.6,25,80.1,25z M24.1,7.2c-3.3,0-6,2.7-6,5.9v2c0,3.3,2.7,5.9,6,5.9h56c3.3,0,6-2.7,6-5.9v-2c0-3.3-2.7-5.9-6-5.9
			H24.1z"/>
	</g>
</g>
</svg>
