<?xml version="1.0" encoding="utf-8"?>
<!-- Generator: Adobe Illustrator 18.1.0, SVG Export Plug-In . SVG Version: 6.00 Build 0)  -->
<!DOCTYPE svg PUBLIC "-//W3C//DTD SVG 1.1//EN" "http://www.w3.org/Graphics/SVG/1.1/DTD/svg11.dtd">
<svg version="1.1" id="Layer_1" xmlns="http://www.w3.org/2000/svg" xmlns:xlink="http://www.w3.org/1999/xlink" x="0px" y="0px"
	 viewBox="0 0 418.3 117.3" enable-background="new 0 0 418.3 117.3" xml:space="preserve">
<g>
	<g>
		<path fill="#4D4E4E" d="M118.5,114.1h13v2.5h-15.8V88.8h2.8V114.1z"/>
		<path fill="#4D4E4E" d="M138.6,91.2c0,0.5-0.2,1-0.6,1.4c-0.4,0.4-0.8,0.5-1.3,0.5s-0.9-0.2-1.3-0.5c-0.4-0.4-0.6-0.8-0.6-1.4
			s0.2-1,0.6-1.4s0.8-0.5,1.3-0.5s0.9,0.2,1.3,0.5S138.6,90.6,138.6,91.2z M138,116.6h-2.7V98.2h2.7V116.6z"/>
		<path fill="#4D4E4E" d="M154.4,102.6c-0.4-0.8-1-1.4-1.8-1.9c-0.8-0.5-1.7-0.7-2.7-0.7c-0.5,0-0.9,0.1-1.4,0.2
			c-0.5,0.1-0.9,0.3-1.3,0.5c-0.4,0.2-0.7,0.5-0.9,0.9c-0.2,0.4-0.3,0.8-0.3,1.3c0,0.9,0.4,1.5,1.1,2s1.8,0.8,3.3,1.2
			c2.2,0.4,3.8,1.1,4.8,1.9c1,0.9,1.6,2,1.6,3.4c0,1-0.2,1.9-0.6,2.6c-0.4,0.7-0.9,1.3-1.6,1.8s-1.4,0.8-2.2,1
			c-0.8,0.2-1.7,0.3-2.5,0.3c-1.4,0-2.7-0.3-4-0.9c-1.3-0.6-2.4-1.5-3.2-2.7l2.1-1.6c0.5,0.8,1.2,1.5,2.1,2c0.9,0.5,1.9,0.8,3,0.8
			c0.6,0,1.1-0.1,1.6-0.2c0.5-0.1,1-0.3,1.4-0.5c0.4-0.3,0.7-0.6,0.9-1c0.2-0.4,0.4-0.9,0.4-1.5c0-1-0.5-1.7-1.4-2.2
			c-0.9-0.5-2.3-0.9-4-1.4c-0.5-0.1-1.1-0.3-1.7-0.5c-0.6-0.2-1.2-0.5-1.7-0.9c-0.5-0.4-1-0.9-1.3-1.4c-0.3-0.6-0.5-1.3-0.5-2.2
			c0-0.9,0.2-1.7,0.5-2.4c0.4-0.7,0.9-1.2,1.5-1.6c0.6-0.4,1.3-0.8,2.1-1c0.8-0.2,1.6-0.3,2.4-0.3c1.3,0,2.5,0.3,3.7,0.9
			c1.2,0.6,2.1,1.4,2.7,2.4L154.4,102.6z"/>
		<path fill="#4D4E4E" d="M171,100.5h-5.2v10.7c0,0.7,0.1,1.2,0.2,1.7c0.1,0.4,0.3,0.8,0.6,1c0.2,0.2,0.5,0.4,0.9,0.5
			c0.3,0.1,0.7,0.1,1.1,0.1c0.4,0,0.8-0.1,1.2-0.2c0.4-0.1,0.8-0.2,1.2-0.4l0.1,2.3c-0.5,0.2-1,0.3-1.5,0.4
			c-0.5,0.1-1.1,0.1-1.7,0.1c-0.5,0-1-0.1-1.6-0.2c-0.5-0.1-1.1-0.4-1.5-0.7c-0.5-0.4-0.9-0.9-1.2-1.5c-0.3-0.6-0.5-1.5-0.5-2.5
			v-11.5h-3.8v-2.2h3.8V93h2.7v5.2h5.2V100.5z"/>
		<path fill="#4D4E4E" d="M191.3,106.9c0,0.2,0,0.4,0,0.6s0,0.4,0,0.7H176c0,0.9,0.2,1.8,0.5,2.6c0.3,0.8,0.8,1.5,1.4,2.1
			c0.6,0.6,1.3,1.1,2.1,1.4c0.8,0.4,1.7,0.5,2.6,0.5c1.4,0,2.6-0.3,3.6-1c1-0.6,1.8-1.4,2.3-2.2l2,1.6c-1.1,1.4-2.3,2.4-3.6,3
			c-1.3,0.6-2.7,0.9-4.3,0.9c-1.4,0-2.6-0.2-3.8-0.7c-1.2-0.5-2.2-1.2-3-2c-0.8-0.9-1.5-1.9-2-3.1c-0.5-1.2-0.7-2.5-0.7-3.8
			c0-1.4,0.2-2.7,0.7-3.8c0.5-1.2,1.1-2.2,2-3.1c0.8-0.9,1.8-1.5,2.9-2c1.1-0.5,2.3-0.7,3.7-0.7c1.4,0,2.7,0.2,3.8,0.7
			c1.1,0.5,2,1.1,2.7,2c0.7,0.8,1.3,1.8,1.7,2.9C191.1,104.4,191.3,105.6,191.3,106.9z M188.6,106c-0.1-1.7-0.6-3.2-1.7-4.3
			c-1-1.1-2.5-1.7-4.4-1.7c-0.9,0-1.7,0.2-2.5,0.5c-0.8,0.3-1.4,0.8-2,1.3c-0.6,0.6-1,1.2-1.4,1.9c-0.3,0.7-0.5,1.5-0.6,2.3H188.6z"
			/>
		<path fill="#4D4E4E" d="M198.8,98.2c0.1,0.5,0.1,1,0.1,1.6c0,0.6,0,1.1,0,1.5h0.1c0.5-1.1,1.4-1.9,2.6-2.6c1.2-0.7,2.4-1,3.7-1
			c2.3,0,4.1,0.7,5.2,2.1c1.2,1.4,1.7,3.2,1.7,5.5v11.3h-2.7v-10.2c0-1-0.1-1.8-0.2-2.6s-0.4-1.5-0.8-2c-0.4-0.6-0.9-1-1.5-1.3
			c-0.6-0.3-1.4-0.5-2.4-0.5c-0.7,0-1.4,0.1-2.1,0.4s-1.3,0.7-1.8,1.3c-0.5,0.6-0.9,1.3-1.3,2.2c-0.3,0.9-0.5,2-0.5,3.2v9.4h-2.7
			v-14.3c0-0.5,0-1.1,0-1.9c0-0.8-0.1-1.5-0.1-2.1H198.8z"/>
		<path fill="#4D4E4E" d="M263.3,93.3c-0.6-0.8-1.4-1.5-2.3-2s-2.1-0.8-3.4-0.8c-0.7,0-1.4,0.1-2.1,0.3c-0.7,0.2-1.3,0.5-1.9,1
			c-0.6,0.4-1,1-1.4,1.6c-0.4,0.7-0.5,1.4-0.5,2.3c0,0.9,0.2,1.6,0.5,2.2c0.3,0.6,0.8,1.1,1.4,1.5c0.6,0.4,1.2,0.7,1.9,1
			c0.7,0.3,1.5,0.5,2.3,0.8c1,0.3,1.9,0.7,2.9,1c1,0.4,1.9,0.8,2.6,1.4s1.4,1.3,1.9,2.2c0.5,0.9,0.7,2,0.7,3.4
			c0,1.4-0.3,2.6-0.8,3.6c-0.5,1-1.2,1.8-2.1,2.5c-0.8,0.7-1.8,1.1-2.9,1.5c-1.1,0.3-2.2,0.5-3.3,0.5c-0.8,0-1.7-0.1-2.5-0.3
			c-0.8-0.2-1.6-0.4-2.4-0.8s-1.5-0.8-2.1-1.3c-0.7-0.5-1.2-1.1-1.7-1.8l2.4-1.8c0.6,1,1.4,1.8,2.5,2.5s2.4,1,3.8,1
			c0.7,0,1.4-0.1,2.2-0.3c0.7-0.2,1.4-0.6,2-1c0.6-0.5,1.1-1,1.5-1.7c0.4-0.7,0.6-1.4,0.6-2.3c0-1-0.2-1.8-0.6-2.4
			c-0.4-0.6-0.9-1.2-1.5-1.6c-0.6-0.4-1.3-0.8-2.2-1.1c-0.8-0.3-1.7-0.6-2.6-0.9c-0.9-0.3-1.8-0.6-2.7-1c-0.9-0.4-1.7-0.8-2.4-1.4
			s-1.3-1.3-1.7-2.2c-0.4-0.9-0.6-1.9-0.6-3.2c0-1.3,0.3-2.5,0.8-3.5c0.5-1,1.2-1.8,2.1-2.4c0.9-0.6,1.8-1.1,2.9-1.4
			s2.1-0.4,3.1-0.4c1.9,0,3.5,0.3,4.8,1s2.3,1.5,3,2.4L263.3,93.3z"/>
		<path fill="#4D4E4E" d="M288.1,106.9c0,0.2,0,0.4,0,0.6s0,0.4,0,0.7h-15.2c0,0.9,0.2,1.8,0.5,2.6c0.3,0.8,0.8,1.5,1.4,2.1
			c0.6,0.6,1.3,1.1,2.1,1.4c0.8,0.4,1.7,0.5,2.6,0.5c1.4,0,2.6-0.3,3.6-1c1-0.6,1.8-1.4,2.3-2.2l2,1.6c-1.1,1.4-2.3,2.4-3.6,3
			c-1.3,0.6-2.7,0.9-4.3,0.9c-1.4,0-2.6-0.2-3.8-0.7c-1.2-0.5-2.2-1.2-3-2c-0.8-0.9-1.5-1.9-2-3.1c-0.5-1.2-0.7-2.5-0.7-3.8
			c0-1.4,0.2-2.7,0.7-3.8c0.5-1.2,1.1-2.2,2-3.1s1.8-1.5,2.9-2c1.1-0.5,2.3-0.7,3.7-0.7c1.4,0,2.7,0.2,3.8,0.7c1.1,0.5,2,1.1,2.7,2
			c0.7,0.8,1.3,1.8,1.7,2.9C287.9,104.4,288.1,105.6,288.1,106.9z M285.4,106c-0.1-1.7-0.6-3.2-1.7-4.3c-1-1.1-2.5-1.7-4.4-1.7
			c-0.9,0-1.7,0.2-2.5,0.5c-0.8,0.3-1.4,0.8-2,1.3c-0.6,0.6-1,1.2-1.4,1.9c-0.3,0.7-0.5,1.5-0.6,2.3H285.4z"/>
		<path fill="#4D4E4E" d="M310.2,106.9c0,0.2,0,0.4,0,0.6s0,0.4,0,0.7h-15.2c0,0.9,0.2,1.8,0.5,2.6c0.3,0.8,0.8,1.5,1.4,2.1
			c0.6,0.6,1.3,1.1,2.1,1.4c0.8,0.4,1.7,0.5,2.6,0.5c1.4,0,2.6-0.3,3.6-1c1-0.6,1.8-1.4,2.3-2.2l2,1.6c-1.1,1.4-2.3,2.4-3.6,3
			c-1.3,0.6-2.7,0.9-4.3,0.9c-1.4,0-2.6-0.2-3.8-0.7c-1.2-0.5-2.2-1.2-3-2c-0.8-0.9-1.5-1.9-2-3.1c-0.5-1.2-0.7-2.5-0.7-3.8
			c0-1.4,0.2-2.7,0.7-3.8c0.5-1.2,1.1-2.2,2-3.1s1.8-1.5,2.9-2c1.1-0.5,2.3-0.7,3.7-0.7c1.4,0,2.7,0.2,3.8,0.7c1.1,0.5,2,1.1,2.7,2
			c0.7,0.8,1.3,1.8,1.7,2.9C310,104.4,310.2,105.6,310.2,106.9z M307.5,106c-0.1-1.7-0.6-3.2-1.7-4.3c-1-1.1-2.5-1.7-4.4-1.7
			c-0.9,0-1.7,0.2-2.5,0.5c-0.8,0.3-1.4,0.8-2,1.3c-0.6,0.6-1,1.2-1.4,1.9c-0.3,0.7-0.5,1.5-0.6,2.3H307.5z"/>
		<path fill="#4D4E4E" d="M349.5,116.6h-2.8V88.8h16.8v2.5h-13.9v9.6h13v2.5h-13V116.6z"/>
		<path fill="#4D4E4E" d="M384.4,106.9c0,0.2,0,0.4,0,0.6s0,0.4,0,0.7h-15.2c0,0.9,0.2,1.8,0.5,2.6c0.3,0.8,0.8,1.5,1.4,2.1
			c0.6,0.6,1.3,1.1,2.1,1.4c0.8,0.4,1.7,0.5,2.6,0.5c1.4,0,2.6-0.3,3.6-1c1-0.6,1.8-1.4,2.3-2.2l2,1.6c-1.1,1.4-2.3,2.4-3.6,3
			c-1.3,0.6-2.7,0.9-4.3,0.9c-1.4,0-2.6-0.2-3.8-0.7c-1.2-0.5-2.2-1.2-3-2c-0.8-0.9-1.5-1.9-2-3.1c-0.5-1.2-0.7-2.5-0.7-3.8
			c0-1.4,0.2-2.7,0.7-3.8c0.5-1.2,1.1-2.2,2-3.1s1.8-1.5,2.9-2c1.1-0.5,2.3-0.7,3.7-0.7c1.4,0,2.7,0.2,3.8,0.7c1.1,0.5,2,1.1,2.7,2
			c0.7,0.8,1.3,1.8,1.7,2.9C384.2,104.4,384.4,105.6,384.4,106.9z M381.7,106c-0.1-1.7-0.6-3.2-1.7-4.3c-1-1.1-2.5-1.7-4.4-1.7
			c-0.9,0-1.7,0.2-2.5,0.5c-0.8,0.3-1.4,0.8-2,1.3c-0.6,0.6-1,1.2-1.4,1.9c-0.3,0.7-0.5,1.5-0.6,2.3H381.7z"/>
		<path fill="#4D4E4E" d="M406.5,106.9c0,0.2,0,0.4,0,0.6s0,0.4,0,0.7h-15.2c0,0.9,0.2,1.8,0.5,2.6c0.3,0.8,0.8,1.5,1.4,2.1
			c0.6,0.6,1.3,1.1,2.1,1.4c0.8,0.4,1.7,0.5,2.6,0.5c1.4,0,2.6-0.3,3.6-1c1-0.6,1.8-1.4,2.3-2.2l2,1.6c-1.1,1.4-2.3,2.4-3.6,3
			c-1.3,0.6-2.7,0.9-4.3,0.9c-1.4,0-2.6-0.2-3.8-0.7c-1.2-0.5-2.2-1.2-3-2c-0.8-0.9-1.5-1.9-2-3.1c-0.5-1.2-0.7-2.5-0.7-3.8
			c0-1.4,0.2-2.7,0.7-3.8c0.5-1.2,1.1-2.2,2-3.1s1.8-1.5,2.9-2c1.1-0.5,2.3-0.7,3.7-0.7c1.4,0,2.7,0.2,3.8,0.7c1.1,0.5,2,1.1,2.7,2
			c0.7,0.8,1.3,1.8,1.7,2.9C406.3,104.4,406.5,105.6,406.5,106.9z M403.8,106c-0.1-1.7-0.6-3.2-1.7-4.3c-1-1.1-2.5-1.7-4.4-1.7
			c-0.9,0-1.7,0.2-2.5,0.5c-0.8,0.3-1.4,0.8-2,1.3c-0.6,0.6-1,1.2-1.4,1.9c-0.3,0.7-0.5,1.5-0.6,2.3H403.8z"/>
		<path fill="#4D4E4E" d="M414.4,116.6h-2.7V86.9h2.7V116.6z"/>
	</g>
	<g>
		<path fill="#4D4E4E" d="M152.6,15.1c-1.4-2-3.3-3.6-5.5-4.8c-2.2-1.2-4.9-1.8-8.1-1.8c-1.6,0-3.3,0.2-4.9,0.7
			c-1.7,0.5-3.2,1.3-4.6,2.3c-1.4,1-2.5,2.3-3.3,3.9c-0.8,1.6-1.3,3.4-1.3,5.5c0,2.1,0.4,3.8,1.2,5.2c0.8,1.4,1.9,2.5,3.2,3.5
			c1.3,1,2.8,1.8,4.5,2.4c1.7,0.6,3.5,1.2,5.3,1.9c2.3,0.7,4.6,1.6,6.9,2.4c2.3,0.9,4.4,2,6.3,3.4c1.9,1.4,3.4,3.2,4.5,5.3
			c1.2,2.1,1.8,4.9,1.8,8.1c0,3.3-0.6,6.1-1.9,8.5c-1.3,2.4-2.9,4.4-4.9,5.9c-2,1.6-4.3,2.7-6.9,3.4c-2.6,0.7-5.2,1.1-7.8,1.1
			c-2,0-4-0.2-6-0.6c-2-0.4-3.9-1-5.7-1.8c-1.8-0.8-3.5-1.8-5-3.1c-1.6-1.2-2.9-2.7-4.1-4.3l5.8-4.3c1.4,2.4,3.4,4.3,6,5.9
			c2.6,1.6,5.6,2.4,9.1,2.4c1.7,0,3.4-0.3,5.1-0.8c1.7-0.5,3.3-1.3,4.7-2.4c1.4-1.1,2.5-2.4,3.4-4c0.9-1.6,1.3-3.4,1.3-5.5
			c0-2.3-0.5-4.2-1.3-5.7c-0.9-1.5-2.1-2.8-3.6-3.8c-1.5-1-3.2-1.9-5.1-2.6c-1.9-0.7-3.9-1.4-6-2c-2.2-0.7-4.3-1.5-6.4-2.3
			c-2.1-0.9-4-2-5.7-3.4s-3-3.1-4-5.2c-1-2-1.5-4.6-1.5-7.5c0-3.2,0.6-5.9,1.9-8.2c1.3-2.3,2.9-4.2,5-5.7c2-1.5,4.3-2.6,6.8-3.3
			c2.5-0.7,4.9-1,7.3-1c4.5,0,8.3,0.8,11.4,2.4s5.5,3.5,7.2,5.6L152.6,15.1z"/>
		<path fill="#4D4E4E" d="M189.2,32.1h-12.3v25.4c0,1.6,0.2,2.9,0.5,4c0.3,1.1,0.8,1.9,1.3,2.5c0.6,0.6,1.3,1,2.1,1.2
			c0.8,0.2,1.7,0.3,2.6,0.3c0.9,0,1.8-0.1,2.7-0.4c1-0.2,1.9-0.6,2.7-1l0.3,5.5c-1.1,0.4-2.3,0.8-3.5,1c-1.2,0.2-2.5,0.3-4,0.3
			c-1.2,0-2.4-0.2-3.7-0.5c-1.3-0.3-2.5-0.9-3.6-1.8c-1.1-0.9-2-2-2.7-3.5c-0.7-1.5-1.1-3.4-1.1-5.9V32.1h-9v-5.3h9V14.5h6.3v12.3
			h12.3V32.1z"/>
		<path fill="#4D4E4E" d="M236.1,47.2c0,0.4,0,0.9,0,1.4c0,0.5,0,1-0.1,1.6h-36.1c0.1,2.2,0.5,4.2,1.3,6.1c0.8,1.9,1.9,3.6,3.3,5
			c1.4,1.4,3.1,2.6,5,3.4c1.9,0.8,4,1.3,6.2,1.3c3.3,0,6.1-0.8,8.5-2.3c2.4-1.5,4.2-3.3,5.4-5.3l4.7,3.7c-2.6,3.3-5.5,5.6-8.6,7.1
			c-3.1,1.4-6.5,2.1-10.1,2.1c-3.2,0-6.2-0.6-9-1.7c-2.8-1.1-5.1-2.7-7.1-4.8c-2-2-3.5-4.5-4.7-7.3c-1.1-2.8-1.7-5.8-1.7-9.1
			c0-3.3,0.6-6.3,1.7-9.1s2.7-5.2,4.7-7.3c2-2,4.3-3.6,7-4.8c2.7-1.1,5.5-1.7,8.6-1.7c3.4,0,6.4,0.6,9,1.7c2.6,1.1,4.8,2.7,6.5,4.6
			c1.7,2,3.1,4.2,4,6.8C235.6,41.5,236.1,44.3,236.1,47.2z M229.6,45.2c-0.2-4.1-1.5-7.5-4-10.2c-2.4-2.7-5.9-4-10.5-4
			c-2.1,0-4.1,0.4-5.9,1.2c-1.8,0.8-3.4,1.8-4.7,3.2c-1.4,1.3-2.4,2.9-3.3,4.6c-0.8,1.7-1.3,3.5-1.4,5.3H229.6z"/>
		<path fill="#4D4E4E" d="M267.5,32.1h-12.3v25.4c0,1.6,0.2,2.9,0.5,4c0.3,1.1,0.8,1.9,1.3,2.5c0.6,0.6,1.3,1,2.1,1.2
			c0.8,0.2,1.7,0.3,2.6,0.3c0.9,0,1.8-0.1,2.7-0.4c1-0.2,1.9-0.6,2.7-1l0.3,5.5c-1.1,0.4-2.3,0.8-3.5,1c-1.2,0.2-2.5,0.3-4,0.3
			c-1.2,0-2.4-0.2-3.7-0.5c-1.3-0.3-2.5-0.9-3.6-1.8c-1.1-0.9-2-2-2.7-3.5c-0.7-1.5-1.1-3.4-1.1-5.9V32.1h-9v-5.3h9V14.5h6.3v12.3
			h12.3V32.1z"/>
		<path fill="#4D4E4E" d="M282.4,33.9c1.2-2.5,3.1-4.6,5.9-6c2.7-1.5,5.6-2.2,8.7-2.2c5.5,0,9.7,1.6,12.4,4.9
			c2.8,3.3,4.1,7.6,4.1,13v26.7h-6.3V46.2c0-2.3-0.2-4.4-0.6-6.2c-0.4-1.9-1-3.5-1.9-4.8c-0.9-1.3-2.1-2.4-3.6-3.1
			c-1.5-0.7-3.4-1.1-5.7-1.1c-1.7,0-3.3,0.3-4.9,1c-1.6,0.7-3,1.7-4.2,3.1s-2.2,3.2-3,5.3c-0.7,2.1-1.1,4.7-1.1,7.6v22.3h-6.3V0h6.3
			v33.9H282.4z"/>
		<path fill="#4D4E4E" d="M367,47.2c0,0.4,0,0.9,0,1.4c0,0.5,0,1-0.1,1.6h-36.1c0.1,2.2,0.5,4.2,1.3,6.1c0.8,1.9,1.9,3.6,3.3,5
			c1.4,1.4,3.1,2.6,5,3.4c1.9,0.8,4,1.3,6.2,1.3c3.3,0,6.1-0.8,8.5-2.3c2.4-1.5,4.2-3.3,5.4-5.3l4.7,3.7c-2.6,3.3-5.5,5.6-8.6,7.1
			c-3.1,1.4-6.5,2.1-10.1,2.1c-3.2,0-6.2-0.6-9-1.7c-2.8-1.1-5.1-2.7-7.1-4.8c-2-2-3.5-4.5-4.7-7.3c-1.1-2.8-1.7-5.8-1.7-9.1
			c0-3.3,0.6-6.3,1.7-9.1s2.7-5.2,4.7-7.3c2-2,4.3-3.6,7-4.8c2.7-1.1,5.5-1.7,8.6-1.7c3.4,0,6.4,0.6,9,1.7c2.6,1.1,4.8,2.7,6.5,4.6
			c1.7,2,3.1,4.2,4,6.8C366.6,41.5,367,44.3,367,47.2z M360.6,45.2c-0.2-4.1-1.5-7.5-4-10.2c-2.4-2.7-5.9-4-10.5-4
			c-2.1,0-4.1,0.4-5.9,1.2c-1.8,0.8-3.4,1.8-4.7,3.2c-1.4,1.3-2.4,2.9-3.3,4.6c-0.8,1.7-1.3,3.5-1.4,5.3H360.6z"/>
		<path fill="#4D4E4E" d="M418.3,47.2c0,0.4,0,0.9,0,1.4c0,0.5,0,1-0.1,1.6h-36.1c0.1,2.2,0.5,4.2,1.3,6.1c0.8,1.9,1.9,3.6,3.3,5
			c1.4,1.4,3.1,2.6,5,3.4c1.9,0.8,4,1.3,6.2,1.3c3.3,0,6.1-0.8,8.5-2.3c2.4-1.5,4.2-3.3,5.4-5.3l4.7,3.7c-2.6,3.3-5.5,5.6-8.6,7.1
			c-3.1,1.4-6.5,2.1-10.1,2.1c-3.2,0-6.2-0.6-9-1.7c-2.8-1.1-5.1-2.7-7.1-4.8c-2-2-3.5-4.5-4.7-7.3c-1.1-2.8-1.7-5.8-1.7-9.1
			c0-3.3,0.6-6.3,1.7-9.1s2.7-5.2,4.7-7.3c2-2,4.3-3.6,7-4.8c2.7-1.1,5.5-1.7,8.6-1.7c3.4,0,6.4,0.6,9,1.7c2.6,1.1,4.8,2.7,6.5,4.6
			c1.7,2,3.1,4.2,4,6.8C417.8,41.5,418.3,44.3,418.3,47.2z M411.9,45.2c-0.2-4.1-1.5-7.5-4-10.2c-2.4-2.7-5.9-4-10.5-4
			c-2.1,0-4.1,0.4-5.9,1.2c-1.8,0.8-3.4,1.8-4.7,3.2c-1.4,1.3-2.4,2.9-3.3,4.6c-0.8,1.7-1.3,3.5-1.4,5.3H411.9z"/>
	</g>
	<g>
		<path fill="#4D4E4E" d="M86,72.9H18c-9.9,0-18-8.1-18-18v-4c0-9.9,8.1-18,18-18h68c9.9,0,18,8.1,18,18v4
			C104,64.8,95.9,72.9,86,72.9z M18,36.9c-7.7,0-14,6.3-14,14v4c0,7.7,6.3,14,14,14h68c7.7,0,14-6.3,14-14v-4c0-7.7-6.3-14-14-14H18
			z"/>
	</g>
	<g>
		<path fill="#4D4E4E" d="M80,24.9H24c-5.5,0-10-4.5-10-10v-2c0-5.5,4.5-10,10-10h56c5.5,0,10,4.5,10,10v2
			C90,20.4,85.5,24.9,80,24.9z M24,6.9c-3.3,0-6,2.7-6,6v2c0,3.3,2.7,6,6,6h56c3.3,0,6-2.7,6-6v-2c0-3.3-2.7-6-6-6H24z"/>
	</g>
</g>
</svg>
